inDegrees=yes
name=ik_S56_A10_T01
DataType=double
version=3
OpenSimVersion=4.3-2021-08-27-4bc7ad9
endheader
time	pelvis_tilt	pelvis_list	pelvis_rotation	pelvis_tx	pelvis_ty	pelvis_tz	hip_flexion_r	hip_adduction_r	hip_rotation_r	knee_angle_r	knee_angle_r_beta	ankle_angle_r	subtalar_angle_r	mtp_angle_r	hip_flexion_l	hip_adduction_l	hip_rotation_l	knee_angle_l	knee_angle_l_beta	ankle_angle_l	subtalar_angle_l	mtp_angle_l	lumbar_extension	lumbar_bending	lumbar_rotation	arm_flex_r	arm_add_r	arm_rot_r	elbow_flex_r	pro_sup_r	wrist_flex_r	wrist_dev_r	arm_flex_l	arm_add_l	arm_rot_l	elbow_flex_l	pro_sup_l	wrist_flex_l	wrist_dev_l
11.43999999999984	-4.566012966797353	-2.690243213092127	20.46674089155443	0	0.9399999999999999	0	44.70894524637303	-10.00046837146189	-9.999859336832047	54.80918362435882	0.9566007145752203	0	0	0	44.70894524637303	-10.00046837146189	-9.999859336832047	54.80918362435882	0.9566007145752203	0	0	0	-5.100380940005429	-1.166601775465615	4.8541230566849	14.51818633293516	0.9123880412580843	3.057623870921623	22.42768699702258	77.39543384129772	0	0	16.19298461086726	0.6821361399666004	-0.06086627450028204	18.02154944914023	85.70211097182882	0	0
11.45999999999984	-4.628815798011678	-2.717409180164558	20.28997000545099	0	0.9399999999999999	0	44.70903603335825	-10.00046786128271	-9.999859435120674	54.80922351544285	0.9566014108059789	0	0	0	44.70903603335825	-10.00046786128271	-9.999859435120674	54.80922351544285	0.9566014108059789	0	0	0	-5.166630396944555	-1.175502764553125	4.904987725693677	14.6502461408006	0.9295749267073564	3.177080299131891	22.43968160189526	77.38707283214855	0	0	16.44128022392999	0.3842632876372978	0.8305158268825932	17.45829081032486	84.95284075078051	0	0
11.47999999999984	-4.663931144337247	-2.729245190554347	20.20976583305249	0	0.9399999999999999	0	44.70942114035928	-10.00046575929607	-9.999859845084615	54.80939525172433	0.9566044081695358	0	0	0	44.70942114035928	-10.00046575929607	-9.999859845084615	54.80939525172433	0.9566044081695358	0	0	0	-5.204280287175475	-1.174592713407769	4.909876360211196	14.80857844569813	0.5857404978229919	4.616290631272811	22.86225554256061	75.9159929186596	0	0	16.61130742773581	0.1438522390850068	1.985017704104735	17.22524518255654	84.30326706595005	0	0
11.49999999999984	-4.717451187565914	-2.74295463176697	19.93086121473763	0	0.9399999999999999	0	44.7096403233035	-10.00046454138258	-9.999860080883829	54.80949202920458	0.9566060972552081	0	0	0	44.7096403233035	-10.00046454138258	-9.999860080883829	54.80949202920458	0.9566060972552081	0	0	0	-5.253429793682552	-1.181960774119744	5.028069382109492	14.99212573316162	0.4879548804021879	5.620031076041065	23.11622254662965	75.03267595433429	0	0	16.7993299425607	-0.005971528563282806	3.037702560264574	17.13826227290746	83.50907084692962	0	0
11.51999999999984	-4.773090041755273	-2.76999413479832	19.68235647092401	0	0.9399999999999999	0	44.70983856521379	-10.0004634464127	-9.999860293385384	54.80957989954285	0.9566076308819256	0	0	0	44.70983856521379	-10.0004634464127	-9.999860293385384	54.80957989954285	0.9566076308819256	0	0	0	-5.310636725068419	-1.198761553453079	5.121046929511924	15.22869615867754	0.4934774887402753	6.547727456417099	23.24800163183641	74.24319038253289	0	0	17.01956345382323	-0.08980060805210419	3.933718360570849	17.0690462421102	82.52990945808632	0	0
11.53999999999984	-4.800812681857553	-2.781840730881257	19.91654949299696	0	0.9399999999999999	0	44.71012545036966	-10.00046186387122	-9.999860600760426	54.80970697513077	0.9566098487693337	0	0	0	44.71012545036966	-10.00046186387122	-9.999860600760426	54.80970697513077	0.9566098487693337	0	0	0	-5.356145411823057	-1.163142388760219	4.778566909119617	15.42431751395426	0.5967127104225025	7.236982297582974	21.5803932168633	77.79418987592499	0	0	17.20865221761136	-0.1551839019349693	4.775196127201598	17.47237012560321	81.47076443091105	0	0
11.55999999999984	-4.812476461922815	-2.80359912049928	19.7486025956247	0	0.9399999999999999	0	44.71035949699166	-10.00046058256618	-9.999860850428417	54.80981104317396	0.9566116650993335	0	0	0	44.71035949699166	-10.00046058256618	-9.999860850428417	54.80981104317396	0.9566116650993335	0	0	0	-5.374330554878547	-1.180676790364348	4.789635566811381	15.63962421811289	0.7281409783922568	7.98144615457039	21.37685304802224	77.565392793358	0	0	17.32729119616948	-0.1587372390089434	5.315953859122213	16.99805786862263	80.84541922208486	0	0
